<svg class="packet-logo logo-red" viewBox="0 0 201.26 84.63" xmlns="http://www.w3.org/2000/svg" width="201.26"  height="84.63" ><path d="m25.09 67.72h175.94v1h-175.94z" fill="#ec2026"></path><g transform="translate(-200.79 -233.83)"><path d="m229.15 309.66h1.34l3.62 8.55h-1.53l-.83-2h-3.9l-.84 2h-1.49zm2.07 5.18-1.43-3.4-1.41 3.4z" fill="#a6a6a9"></path><path d="m237.66 309.72H239l4.41 5.87v-5.87h1.42v8.49h-1.21l-4.54-6v6h-1.42z" fill="#a6a6a9"></path><path d="m254.75 309.72h6.1v1.33h-4.66v2.21h4.13v1.35h-4.13v2.26h4.72v1.34h-6.16z" fill="#a6a6a9"></path><path d="m272.19 318.46-1-.91a4.3 4.3.0 01-6.8-3.56 4.31 4.31.0 118.61.0 4.47 4.47.0 01-.84 2.61l.94.83zm-2.05-1.86-1.43-1.27.93-1.09 1.45 1.36a3.26 3.26.0 00.4-1.61 2.8 2.8.0 10-5.58.0 2.86 2.86.0 002.8 3 2.77 2.77.0 001.43-.39z" fill="#a6a6a9"></path><path d="m276.77 314.61v-4.89h1.44v4.82c0 1.58.79 2.42 2.09 2.42s2.07-.79 2.07-2.35v-4.89h1.44v4.81c0 2.54-1.39 3.81-3.54 3.81s-3.5-1.27-3.5-3.73z" fill="#a6a6a9"></path><path d="m288 309.72h1.44v8.49H288z" fill="#a6a6a9"></path><path d="m293.8 309.72h1.34l4.41 5.87v-5.87H301v8.49h-1.21l-4.54-6v6h-1.45z" fill="#a6a6a9"></path><path d="m305.31 309.72h1.44v8.49h-1.44z" fill="#a6a6a9"></path><path d="m318.05 309.72-2.87 4.15 3 4.34h-1.71l-2.18-3.21-2.17 3.24h-1.66l3-4.32-2.86-4.17h1.71l2 3.07 2.07-3.07z" fill="#a6a6a9"></path><path d="m327.09 314a4.35 4.35.0 017.47-3.07l-.93 1.11a3.24 3.24.0 00-2.31-1.05 2.81 2.81.0 00-2.71 3 2.83 2.83.0 002.72 3 3.15 3.15.0 002.36-1.09l.93 1a4.28 4.28.0 01-7.53-2.86z" fill="#a6a6a9"></path><path d="m337.68 314a4.31 4.31.0 118.62.0 4.31 4.31.0 11-8.62.0zm7.1.0a2.86 2.86.0 00-2.8-3 2.83 2.83.0 00-2.78 3 2.86 2.86.0 002.8 3 2.82 2.82.0 002.78-3z" fill="#a6a6a9"></path><path d="m350.18 309.72h1.54l2.51 4 2.51-4h1.54v8.49h-1.45v-6.09l-2.6 4h-.05l-2.57-4v6.07h-1.43z" fill="#a6a6a9"></path><path d="m362.53 309.72h3.25c1.93.0 3.13 1.13 3.13 2.84.0 1.9-1.49 2.9-3.3 2.9h-1.61v2.73h-1.45zm3.13 4.41a1.57 1.57.0 001.78-1.51c0-1-.7-1.51-1.78-1.51h-1.66v3.05z" fill="#a6a6a9"></path><path d="m374.62 309.66H376l3.62 8.55h-1.53l-.83-2h-3.9l-.85 2h-1.51zm2.07 5.18-1.43-3.4-1.41 3.4z" fill="#a6a6a9"></path><path d="m383.13 309.72h1.34l4.41 5.87v-5.87h1.42v8.49h-1.21l-4.54-6v6h-1.42z" fill="#a6a6a9"></path><path d="m397 314.86-3.27-5.14h1.71l2.3 3.75 2.33-3.75h1.66l-3.27 5.1v3.39h-1.46z" fill="#a6a6a9"></path><path d="m226.54 251.29a13.4 13.4.0 00-8.18 2.54 20.64 20.64.0 00-4 4.54c-.69-2.89-1.59-6.63-1.59-6.63h-8.9a.89.89.0 00-.89.9V256a.89.89.0 00.9.89h4.95s1.22 4.37 2 7.45c-1 1.88-2.05 3.49-2.91 5.16-4.92 9.49-7.17 16.05-7.17 23.21.0 8.59 3.77 14.15 9.39 14.15 6.5.0 10.38-5.83 10.38-15.92v-1.24a13.53 13.53.0 005.6 1.43c7.21.0 13.18-4.77 14.44-11.34a42.47 42.47.0 00.74-8.51 33.76 33.76.0 00-1.12-9.21c-2.01-6.85-6.97-10.78-13.64-10.78zm-16.36 50.6c-2.77.0-4.21-4.61-4.21-9.17.0-5.78 1.67-12.18 6.7-21.89 1.48 6.75 2.71 15.09 2.71 20.12.0 3.29-.5 10.94-5.2 10.94zm25.3-23.07c-.79 4.13-4.8 7.31-9.52 7.31a19 19 0 01-5.81-1.29 178.43 178.43.0 00-3.86-20.18 27.12 27.12.0 013.28-4.9 8.34 8.34.0 017-3.46c5.46.0 7.72 4 8.67 7.24a27.68 27.68.0 01.91 7.75 37.11 37.11.0 01-.67 7.53z" fill="#35465f"></path><path d="m401.78 283.42-2.64-2.13a.89.89.0 00-.58-.23.86.86.0 00-.63.28c-.84 1-2.45 2.7-2.65 2.89a5.36 5.36.0 01-3.64 1.66c-2.48.0-4.12-.75-4.12-5.16v-23.81h8.48a.9.9.0 00.9-.9v-3.38a.9.9.0 00-.9-.9h-8.46v-9.73a.9.9.0 00-.9-.89h-3.37a.9.9.0 00-.9.9v9.72h-4.08a.9.9.0 00-.9.9V256a.9.9.0 00.9.91h4.08v17.8c-1.17 1.35-4.49 4.88-6.05 6.44-.32.31-.64.6-1 .88a15.9 15.9.0 01-5.79 3.07 25.42 25.42.0 01-8.44 1.07 10 10 0 01-7.82-3.53c.44-.46 6.43-6.47 6.43-6.47 4.95-5.12 8.92-10 9.73-10.92a12.6 12.6.0 001.88-2.63c1.84-3.43 1.87-7-1.27-9.53-1.49-1.19-4.18-2-8.82-1.86-6.93.17-13.75 4.19-15.14 11.28a38.59 38.59.0 00-.75 8.37c0 1 0 2.34.06 3.22a41.59 41.59.0 00.65 5.57c.16.82.45 1.41.75 2.46a16.38 16.38.0 01-2.54 2.63 5 5 0 01-2.79.89h-.24c-1.87.0-3-1.05-4.54-2.63l-.26-.27c-.73-.78-6.06-7.59-10-12.69l8.8-9.33 4.9-5.18a.9.9.0 000-1.27l-2.5-2.28a.9.9.0 00-1.28.0l-.65.69-13.15 13.92-3 3.14v-35a.9.9.0 00-.9-.9h-3.34a.89.89.0 00-.89.9v11.53 29c-.45.48-2.79 3-4.5 4.88a22.83 22.83.0 01-5.79 4.82c-1.77.92-2.79 1.22-7.25 1.22a9.5 9.5.0 01-9.42-7.32 36.4 36.4.0 01-.64-7.53 37.77 37.77.0 01.68-7.91 9.51 9.51.0 019.38-7.08 9.16 9.16.0 017.95 3.91 1.24 1.24.0 00.61.54.91.91.0 00.7-.08l3-1.61a.77.77.0 00.42-.74.87.87.0 00-.1-.39l-.19-.39c-2.35-3.91-7-6.25-12.39-6.25-7 0-13.11 4.61-14.53 11a43.08 43.08.0 00-.81 9.05 42.45 42.45.0 00.73 8.51 18 18 0 00.73 2.37 18.37 18.37.0 01-2.05 2.2 4.92 4.92.0 01-4.55 1.27c-1.49-.31-2.09-1.7-2.13-3.23.0.0.0-16.83.0-18 0-7.71-6-13.1-14.63-13.1a15.89 15.89.0 00-11.75 5.09 9.24 9.24.0 00-1.21 1.73 1.45 1.45.0 00-.12.43.9.9.0 00.52.81l2.89 1.54a.86.86.0 00.42.12.91.91.0 00.73-.4 6.4 6.4.0 01.62-.78 10.8 10.8.0 017.89-3.54c5.76.0 9.27 3.28 9.27 8.09v1.17h-5c-17.42.0-18.77 11.13-18.77 14.54a10.88 10.88.0 002.66 7.19c2.74 3.17 6.16 3.82 9.29 3.82a17.82 17.82.0 008.73-2.83 16.27 16.27.0 003.52-3.21 7.49 7.49.0 007.09 6 9.6 9.6.0 006.28-1.92 16.2 16.2.0 003-2.81 14.52 14.52.0 0011.13 4.72c4.6.0 6.67-.16 9.6-1.69a19.5 19.5.0 004.68-3.46c1.07-1.09 2.21-2.4 3.23-3.61v7.62a.9.9.0 00.91.9h3.38a.9.9.0 00.9-.9v-12.92l3.21-3.31c3.57 4.57 9 11.47 9.87 12.52l.24.26c1.56 1.67 4 4.56 8.22 4.56a7.54 7.54.0 002.65-.42 17.81 17.81.0 005.78-4.33c.45.44 1.23 1.24 1.74 1.63 2.84 2.21 6.28 3.14 10.4 3.13 3.86.0 6.55-.15 9.3-1.09a26.19 26.19.0 008.45-5.29c.73-.73 1.94-1.88 2.91-3.06.32 6.2 3.3 9.44 9.45 9.44a8.94 8.94.0 006.58-3.06l3.46-3.47a.87.87.0 00.22-.56.92.92.0 00-.22-.65zm-132.95-8.2c0 5.36-5.79 10.57-11 10.57-3.83.0-5.31-1-6.07-1.84a5.59 5.59.0 01-1.41-3.81c0-6 4.83-9.36 13.59-9.36h4.89zm82.2 2.36a40.12 40.12.0 01-.41-5.12c0-1.15.0-2.39.05-3.8a40.46 40.46.0 01.41-4.29 8.86 8.86.0 013.51-6c1.83-1.48 4.47-2.31 8.46-2.3 3.82.0 4.4 2.38 3.74 3.69-1.68 3.32-5.9 7.14-10.15 11.77z" fill="#35465f"></path></g></svg>